<svg width="1272" height="106" viewBox="0 0 1272 106" fill="none" xmlns="http://www.w3.org/2000/svg">
<g filter="url(#filter0_d_1_133)">
<path fill-rule="evenodd" clip-rule="evenodd" d="M604.796 53.3417C599.245 49.2015 594.911 44.1667 592.5 39.0001C583.55 19.8222 564.43 15.9008 558.978 15.1609C557.989 15.0265 557 15 556.001 15H53C33.67 15 18 30.67 18 50C18 69.33 33.67 85 53 85H1219C1238.33 85 1254 69.33 1254 50C1254 30.67 1238.33 15 1219 15H708.166C707.389 15 706.623 15.0154 705.852 15.108C701.319 15.6518 684.461 18.7984 675 36C674.806 36.3536 674.61 36.7033 674.413 37.049C671.345 43.3746 666.87 48.8913 661.395 53.1926C648.297 64.3137 632.906 65.295 619.807 61.0803C614.299 59.4342 609.225 56.7838 604.796 53.3417Z" fill="#313338"/>
</g>
<defs>
<filter id="filter0_d_1_133" x="0" y="0" width="1272" height="106" filterUnits="userSpaceOnUse" color-interpolation-filters="sRGB">
<feFlood flood-opacity="0" result="BackgroundImageFix"/>
<feColorMatrix in="SourceAlpha" type="matrix" values="0 0 0 0 0 0 0 0 0 0 0 0 0 0 0 0 0 0 127 0" result="hardAlpha"/>
<feOffset dy="3"/>
<feGaussianBlur stdDeviation="9"/>
<feColorMatrix type="matrix" values="0 0 0 0 0 0 0 0 0 0 0 0 0 0 0 0 0 0 0.15 0"/>
<feBlend mode="normal" in2="BackgroundImageFix" result="effect1_dropShadow_1_133"/>
<feBlend mode="normal" in="SourceGraphic" in2="effect1_dropShadow_1_133" result="shape"/>
</filter>
</defs>
</svg>
